<svg width="80" height="80" viewBox="0 0 80 80" fill="none" xmlns="http://www.w3.org/2000/svg">
<path d="M63.3334 0H16.6666C7.46334 0 0 7.46334 0 16.6666V63.3334C0 72.5367 7.46334 80 16.6666 80H63.3334C72.54 80 80 72.5367 80 63.3334V16.6666C80 7.46334 72.54 0 63.3334 0ZM48.4466 65.3C47.0967 65.56 46.6666 64.7301 46.6666 64.02V56.7033C46.6666 54.2134 45.7934 52.5934 44.8334 51.7666C50.7734 51.1066 57.0134 48.8501 57.0134 38.6101C57.0134 35.6967 55.9734 33.3167 54.2701 31.4534C54.5433 30.78 55.4567 28.0666 54.0066 24.3967C54.0066 24.3967 51.7701 23.68 46.68 27.1301C44.5466 26.5301 42.2666 26.24 40 26.2266C37.7334 26.2367 35.4534 26.5301 33.3233 27.1233C28.2301 23.6734 25.9901 24.3901 25.9901 24.3901C24.5433 28.0633 25.4567 30.7734 25.7334 31.4501C24.0266 33.3167 22.9866 35.6934 22.9866 38.6066C22.9866 48.82 29.2101 51.1101 35.1367 51.7866C34.3734 52.4534 33.6833 53.6266 33.4433 55.3534C31.92 56.0334 28.0633 57.2101 25.6833 53.1334C25.6833 53.1334 24.2734 50.5734 21.5934 50.3833C21.5934 50.3833 18.9934 50.3501 21.4101 52.0066C21.4101 52.0066 23.16 52.8266 24.3734 55.9066C24.3734 55.9066 25.9167 60.6666 33.3334 59.0534V64.0167C33.3334 64.72 32.9033 65.5466 31.5734 65.3C20.9734 61.7767 13.3333 51.78 13.3333 40C13.3333 25.2701 25.2734 13.3333 40 13.3333C54.7266 13.3333 66.6666 25.2701 66.6666 40C66.6666 51.7767 59.0367 61.7701 48.4466 65.3Z" fill="#2B3E5C"/>
</svg>
