<svg width="80" height="80" viewBox="0 0 80 80" fill="none" xmlns="http://www.w3.org/2000/svg">
<path fill-rule="evenodd" clip-rule="evenodd" d="M63.3333 80H16.6667C7.46333 80 0 72.5367 0 63.3333V16.6667C0 7.46333 7.46333 0 16.6667 0H63.3333C72.54 0 80 7.46333 80 16.6667V63.3333C80 72.5367 72.5433 79.9967 63.3333 80ZM66.5667 61.17V60.2733L62.41 56.1933C62.0433 55.9133 61.86 55.4533 61.9367 54.9967V25.0033C61.86 24.5467 62.0433 24.0867 62.41 23.8067L66.6667 19.7267V18.83H51.9267L41.42 45.04L29.4667 18.83H14.0067V19.7267L18.9867 25.7233C19.4733 26.1667 19.7233 26.8133 19.6567 27.4667V51.04C19.8033 51.89 19.5333 52.76 18.9367 53.38L13.3333 60.1733V61.07H29.22V60.1733L23.6167 53.38C23.0133 52.76 22.73 51.8967 22.8433 51.04V30.6533L36.7867 61.07H38.4067L50.3833 30.6533V54.8967C50.3833 55.5433 50.3833 55.67 49.96 56.0933L45.6533 60.2733V61.17H66.5667Z" fill="#2B3E5C"/>
</svg>
