<svg width="80" height="80" viewBox="0 0 80 80" fill="none" xmlns="http://www.w3.org/2000/svg">
<path d="M63.3333 0H16.6667C7.46333 0 0 7.46333 0 16.6667V63.3333C0 72.5367 7.46333 80 16.6667 80H63.3333C72.54 80 80 72.5367 80 63.3333V16.6667C80 7.46333 72.54 0 63.3333 0ZM26.6667 63.3333H16.6667V26.6667H26.6667V63.3333ZM21.6667 22.44C18.4467 22.44 15.8333 19.8067 15.8333 16.56C15.8333 13.3133 18.4467 10.68 21.6667 10.68C24.8867 10.68 27.5 13.3133 27.5 16.56C27.5 19.8067 24.89 22.44 21.6667 22.44ZM66.6667 63.3333H56.6667V44.6533C56.6667 33.4267 43.3333 34.2767 43.3333 44.6533V63.3333H33.3333V26.6667H43.3333V32.55C47.9867 23.93 66.6667 23.2933 66.6667 40.8033V63.3333Z" fill="#2B3E5C"/>
</svg>
