<svg width="80" height="80" viewBox="0 0 80 80" fill="none" xmlns="http://www.w3.org/2000/svg">
<path d="M50.7767 18.2933C47.9667 18.1667 47.12 18.14 40 18.14C32.88 18.14 32.0367 18.1667 29.2267 18.2933C21.9933 18.6233 18.6233 22.05 18.2967 29.2233C18.1667 32.0367 18.1367 32.88 18.1367 40C18.1367 47.12 18.1667 47.9633 18.2933 50.7767C18.6233 57.9367 21.98 61.3767 29.2233 61.7067C32.0333 61.8333 32.88 61.8633 40 61.8633C47.1233 61.8633 47.9667 61.8367 50.7767 61.71C58.01 61.38 61.3767 57.9467 61.7067 50.78C61.8333 47.9667 61.86 47.1233 61.86 40.0033C61.86 32.8833 61.8333 32.04 61.7067 29.23C61.3767 22.0533 58.0033 18.6233 50.7767 18.2933ZM40 53.6933C32.4367 53.6933 26.3067 47.5633 26.3067 40C26.3067 32.4367 32.44 26.3067 40 26.3067C47.56 26.3067 53.6933 32.4367 53.6933 40C53.6933 47.5633 47.5633 53.6933 40 53.6933ZM54.2367 28.9667C52.47 28.9667 51.0367 27.5333 51.0367 25.7667C51.0367 24 52.47 22.5667 54.2367 22.5667C56.0033 22.5667 57.4367 24 57.4367 25.7667C57.4367 27.5333 56.0033 28.9667 54.2367 28.9667ZM48.89 40C48.89 44.91 44.91 48.89 40 48.89C35.09 48.89 31.11 44.91 31.11 40C31.11 35.09 35.09 31.11 40 31.11C44.91 31.11 48.89 35.09 48.89 40ZM63.3333 0H16.6667C7.46333 0 0 7.46333 0 16.6667V63.3333C0 72.5367 7.46333 80 16.6667 80H63.3333C72.54 80 80 72.5367 80 63.3333V16.6667C80 7.46333 72.54 0 63.3333 0ZM66.5067 50.9933C66.0667 60.69 60.67 66.0633 50.9967 66.5067C48.15 66.6367 47.2433 66.6667 40 66.6667C32.7567 66.6667 31.8533 66.6367 29.0067 66.5067C19.3133 66.0633 13.94 60.68 13.4933 50.9933C13.3633 48.15 13.3333 47.2433 13.3333 40C13.3333 32.76 13.3633 31.85 13.4933 29.0067C13.94 19.3133 19.32 13.9367 29.0067 13.4967C31.8533 13.3633 32.7567 13.3333 40 13.3333C47.2433 13.3333 48.15 13.3633 50.9967 13.4933C60.69 13.9367 66.0733 19.33 66.5067 29.0033C66.6367 31.85 66.6667 32.76 66.6667 40C66.6667 47.2433 66.6367 48.15 66.5067 50.9933Z" fill="#2B3E5C"/>
</svg>
